<svg width="15" height="20" viewBox="0 0 15 20" fill="none" xmlns="http://www.w3.org/2000/svg">
<path fill-rule="evenodd" clip-rule="evenodd" d="M6.14718 10.4303C6.61237 11.8259 8.58637 11.8259 9.05156 10.4303C9.1535 10.1245 9.39348 9.88451 9.69929 9.78257C11.0949 9.31738 11.0949 7.34338 9.69929 6.87819C9.39348 6.77625 9.1535 6.53628 9.05156 6.23046C8.58637 4.83489 6.61237 4.83489 6.14718 6.23046C6.04524 6.53628 5.80527 6.77625 5.49945 6.87819C4.10388 7.34338 4.10388 9.31738 5.49945 9.78257C5.80527 9.88451 6.04524 10.1245 6.14718 10.4303ZM7.59937 9.33594C7.35609 8.92016 7.00959 8.57367 6.59381 8.33038C7.00959 8.08709 7.35609 7.7406 7.59937 7.32482C7.84266 7.7406 8.18916 8.08709 8.60493 8.33038C8.18916 8.57367 7.84266 8.92016 7.59937 9.33594Z" fill="#5C5C66"/>
<path fill-rule="evenodd" clip-rule="evenodd" d="M4.0313 14.6724C3.13124 14.3973 2.4175 13.6379 2.24451 12.6517C2.20222 12.4106 2.05105 12.2026 1.83483 12.0879C0.606679 11.4362 0.116626 9.928 0.727206 8.67893C0.834699 8.45903 0.834699 8.20183 0.727206 7.98194C0.116625 6.73287 0.606679 5.22464 1.83483 4.57301C2.05105 4.4583 2.20222 4.25022 2.24451 4.00914C2.48473 2.63973 3.7677 1.70759 5.14432 1.90231C5.38667 1.93658 5.63128 1.85711 5.8072 1.68692C6.80645 0.720244 8.3923 0.720244 9.39155 1.68692C9.56747 1.85711 9.81208 1.93658 10.0544 1.90231C11.431 1.70759 12.714 2.63973 12.9542 4.00914C12.9965 4.25022 13.1477 4.4583 13.3639 4.57301C14.5921 5.22464 15.0821 6.73287 14.4715 7.98194C14.364 8.20183 14.364 8.45903 14.4715 8.67893C15.0821 9.928 14.5921 11.4362 13.3639 12.0879C13.1477 12.2026 12.9965 12.4106 12.9542 12.6517C12.7812 13.6379 12.0675 14.3973 11.1674 14.6724V17.6095C11.1674 19.4722 8.77131 20.2301 7.70009 18.7063C7.65106 18.6365 7.54769 18.6365 7.49866 18.7063C6.42744 20.2301 4.0313 19.4722 4.0313 17.6095V14.6724ZM8.15112 13.6917C7.84348 13.9893 7.35526 13.9893 7.04763 13.6917C6.47621 13.1389 5.68167 12.8808 4.89446 12.9921C4.47065 13.0521 4.07567 12.7651 4.00172 12.3435C3.86436 11.5604 3.3733 10.8845 2.67099 10.5119C2.29289 10.3113 2.14202 9.84696 2.33 9.46242C2.67915 8.74815 2.67915 7.91272 2.33 7.19845C2.14202 6.81391 2.29289 6.34958 2.67099 6.14897C3.3733 5.77634 3.86436 5.10046 4.00172 4.31737C4.07567 3.89579 4.47065 3.60882 4.89446 3.66876C5.68167 3.78011 6.47621 3.52194 7.04763 2.96915C7.35526 2.67155 7.84348 2.67155 8.15112 2.96915C8.72253 3.52194 9.51707 3.78011 10.3043 3.66876C10.7281 3.60882 11.1231 3.89579 11.197 4.31737C11.3344 5.10046 11.8254 5.77634 12.5278 6.14897C12.9059 6.34958 13.0567 6.81391 12.8687 7.19845C12.5196 7.91272 12.5196 8.74815 12.8687 9.46242C13.0567 9.84696 12.9059 10.3113 12.5278 10.5119C11.8254 10.8845 11.3344 11.5604 11.197 12.3435C11.1231 12.7651 10.7281 13.0521 10.3043 12.9921C9.51707 12.8808 8.72253 13.1389 8.15112 13.6917ZM5.81534 17.6095C5.81534 17.6575 5.828 17.6756 5.83464 17.6841C5.84564 17.6982 5.86764 17.7162 5.90131 17.7269C5.93499 17.7375 5.96334 17.7354 5.98044 17.7302C5.99077 17.7271 6.01153 17.7196 6.03916 17.6803C6.7987 16.5998 8.40004 16.5998 9.15959 17.6803C9.18721 17.7196 9.20798 17.7271 9.2183 17.7302C9.23541 17.7354 9.26375 17.7375 9.29743 17.7269C9.33111 17.7162 9.35311 17.6982 9.36411 17.6841C9.37075 17.6756 9.38341 17.6575 9.38341 17.6095V15.1259L8.79614 15.4195C8.04276 15.7962 7.15599 15.7962 6.4026 15.4195L5.81534 15.1259V17.6095Z" fill="#5C5C66"/>
</svg>
