<svg width="24" height="25" viewBox="0 0 24 25" fill="none" xmlns="http://www.w3.org/2000/svg">
<path d="M18.2652 2.02477C17.8409 1.67121 17.2104 1.72853 16.8568 2.15281C16.5033 2.57709 16.5606 3.20765 16.9849 3.56122L18.3295 4.68178C15.4905 5.51311 13.1875 7.55929 12 10.2058C10.8126 7.55929 8.50958 5.51311 5.67054 4.68178L7.01522 3.56122C7.4395 3.20765 7.49682 2.57709 7.14326 2.15281C6.78969 1.72853 6.15913 1.67121 5.73485 2.02477L2.737 4.52298C2.53104 4.69371 2.3937 4.94614 2.37676 5.23427C2.36572 5.42191 2.40716 5.6005 2.48838 5.75575L4.48061 9.74021C4.7276 10.2342 5.32827 10.4344 5.82225 10.1874C6.31623 9.94043 6.51645 9.33976 6.26946 8.84578L5.15411 6.61508C8.47984 7.61114 10.875 10.6931 10.875 14.3077L10.875 21.793C10.875 22.3453 11.3228 22.793 11.875 22.793C11.9174 22.793 11.9591 22.7904 12 22.7853C12.041 22.7904 12.0827 22.793 12.125 22.793C12.6773 22.793 13.125 22.3453 13.125 21.793V14.3077C13.125 10.6931 15.5202 7.61114 18.846 6.61507L17.7306 8.84578C17.4836 9.33976 17.6838 9.94043 18.1778 10.1874C18.6718 10.4344 19.2725 10.2342 19.5195 9.74021L21.5117 5.75575C21.5929 5.6005 21.6344 5.42191 21.6233 5.23427C21.6064 4.94614 21.469 4.69371 21.2631 4.52298L18.2652 2.02477Z" fill="#45454D"/>
</svg>
