<svg width="18" height="16" viewBox="0 0 18 16" fill="none" xmlns="http://www.w3.org/2000/svg">
<path fill-rule="evenodd" clip-rule="evenodd" d="M0.672427 4.1448C0.689866 4.0047 0.717389 3.81745 0.776175 3.6454C0.812236 3.4704 0.891622 3.33054 0.961408 3.23332C1.05731 3.09972 1.17474 2.99067 1.28247 2.90435C1.49819 2.73148 1.77597 2.57048 2.06709 2.42333C2.65693 2.12519 3.43823 1.81656 4.24191 1.52924C5.85703 0.951825 7.66488 0.424682 8.45923 0.199458C8.87292 0.0821658 9.30283 0.0877174 9.71258 0.214012C10.504 0.457957 12.3082 1.02549 13.9191 1.61581C14.7213 1.90978 15.4959 2.21676 16.0779 2.49778C16.3649 2.6364 16.6346 2.78264 16.8428 2.93167C16.9453 3.00509 17.0616 3.09927 17.1597 3.21509C17.2248 3.29209 17.33 3.43473 17.3773 3.63168C17.4394 3.80744 17.4679 4.00095 17.4858 4.14477C17.5129 4.36197 17.5314 4.62428 17.5441 4.91129C17.5698 5.48729 17.5741 6.21049 17.5666 6.96886C17.5515 8.48821 17.4886 10.1896 17.4448 11.2248C17.4072 12.1165 16.8475 12.8947 16.0252 13.2236L9.92209 15.6648C9.38095 15.8813 8.77727 15.8813 8.23612 15.6648L2.13298 13.2236C1.31068 12.8947 0.751032 12.1165 0.713383 11.2248C0.669672 10.1895 0.606711 8.48818 0.591691 6.96884C0.584194 6.21048 0.588511 5.48729 0.614113 4.91129C0.62687 4.62429 0.645392 4.36199 0.672427 4.1448ZM8.32246 14.0696V7.37483C8.2941 7.36477 8.26589 7.35413 8.23783 7.34291L2.12953 4.89959L2.12582 4.97848C2.10203 5.51385 2.09742 6.20528 2.10482 6.95388C2.11959 8.44847 2.18173 10.1305 2.22524 11.161C2.23748 11.4508 2.41927 11.7083 2.69497 11.8186L8.32246 14.0696ZM9.83566 14.0696V7.37486C9.86405 7.3648 9.8923 7.35414 9.92038 7.34291L16.0287 4.89957L16.0324 4.9785C16.0562 5.51387 16.0608 6.20529 16.0534 6.95389C16.0387 8.44848 15.9765 10.1305 15.933 11.161C15.9207 11.4508 15.739 11.7083 15.4633 11.8186L9.83566 14.0696ZM13.3984 3.03662C13.9979 3.2563 14.5564 3.47439 15.0153 3.67517L12.8745 4.53149L7.31778 2.11282C7.96314 1.91595 8.51742 1.75581 8.872 1.65528C9.00341 1.61802 9.13516 1.61949 9.26687 1.66008C10.0522 1.90214 11.8258 2.46031 13.3984 3.03662ZM5.14277 2.81645L10.8987 5.32181L9.35839 5.93794C9.17801 6.01009 8.9802 6.01009 8.79982 5.93794L3.04019 3.63409C3.51129 3.41731 4.10557 3.18498 4.75131 2.95412C4.88064 2.90789 5.01135 2.86195 5.14277 2.81645Z" fill="#9E9EAA"/>
</svg>
