<svg width="10" height="10" viewBox="0 0 10 10" fill="none" xmlns="http://www.w3.org/2000/svg">
<path d="M2.375 6.89265V3.38245C2.375 2.94147 2.55018 2.51855 2.862 2.20673C3.17382 1.89491 3.59674 1.71973 4.03773 1.71973H6.62419C6.84254 1.71973 7.05876 1.76273 7.26049 1.84629C7.46222 1.92985 7.64552 2.05233 7.79991 2.20673C7.95431 2.36113 8.07679 2.54442 8.16035 2.74615C8.24391 2.94789 8.28692 3.1641 8.28692 3.38245V5.96892C8.28692 6.18727 8.24391 6.40348 8.16035 6.60521C8.07679 6.80694 7.95431 6.99024 7.79991 7.14464C7.64552 7.29904 7.46222 7.42151 7.26049 7.50507C7.05876 7.58863 6.84254 7.63164 6.62419 7.63164H3.11399C2.918 7.63164 2.73003 7.55378 2.59144 7.4152C2.45286 7.27661 2.375 7.08864 2.375 6.89265Z" stroke="white" stroke-width="0.797537" stroke-linecap="round" stroke-linejoin="round"/>
<path d="M3.85352 4.67427H5.14675C5.34274 4.67427 5.5307 4.75213 5.66929 4.89071C5.80788 5.0293 5.88574 5.21727 5.88574 5.41326C5.88574 5.60925 5.80788 5.79721 5.66929 5.9358C5.5307 6.07439 5.34274 6.15225 5.14675 6.15225H3.85352V3.56578C3.85352 3.46779 3.89244 3.37381 3.96174 3.30451C4.03103 3.23522 4.12501 3.19629 4.22301 3.19629H4.77725C4.97324 3.19629 5.16121 3.27415 5.2998 3.41273C5.43838 3.55132 5.51624 3.73929 5.51624 3.93528C5.51624 4.13127 5.43838 4.31924 5.2998 4.45782C5.16121 4.59641 4.97324 4.67427 4.77725 4.67427H4.22301M6.80947 6.15225H6.81317" stroke="white" stroke-width="0.797537" stroke-linecap="round" stroke-linejoin="round"/>
</svg>
