<svg width="18" height="17" viewBox="0 0 18 17" fill="none" xmlns="http://www.w3.org/2000/svg">
<path fill-rule="evenodd" clip-rule="evenodd" d="M6.05886 0.694336C6.44263 0.694336 6.75373 1.00544 6.75373 1.38921V2.08407H10.9229V1.38921C10.9229 1.00544 11.234 0.694336 11.6178 0.694336C12.0016 0.694336 12.3127 1.00544 12.3127 1.38921V2.08407H13.0076C14.5426 2.08407 15.787 3.32849 15.787 4.86355V12.5071C15.787 14.0422 14.5426 15.2866 13.0076 15.2866H4.66912C3.13406 15.2866 1.88965 14.0422 1.88965 12.5071V4.86355C1.88965 3.32849 3.13406 2.08407 4.66912 2.08407H5.36399V1.38921C5.36399 1.00544 5.6751 0.694336 6.05886 0.694336ZM10.9229 3.47381C10.9229 3.85758 11.234 4.16868 11.6178 4.16868C12.0016 4.16868 12.3127 3.85758 12.3127 3.47381H13.0076C13.7751 3.47381 14.3973 4.09602 14.3973 4.86355V5.21099H3.27939V4.86355C3.27939 4.09602 3.90159 3.47381 4.66912 3.47381H5.36399C5.36399 3.85758 5.6751 4.16868 6.05886 4.16868C6.44263 4.16868 6.75373 3.85758 6.75373 3.47381H10.9229ZM14.3973 6.60072H3.27939V12.5071C3.27939 13.2746 3.90159 13.8968 4.66912 13.8968H13.0076C13.7751 13.8968 14.3973 13.2746 14.3973 12.5071V6.60072Z" fill="#737380"/>
</svg>
