<svg width="24" height="24" viewBox="0 0 24 24" fill="none" xmlns="http://www.w3.org/2000/svg">
<path fill-rule="evenodd" clip-rule="evenodd" d="M3.68206 3.34383C2.94369 4.08219 2.43866 5.18867 2.72673 6.38726C3.16834 8.22478 4.49723 11.5732 8.46023 15.5362C12.4232 19.4992 15.7717 20.8281 17.6092 21.2697C18.8078 21.5578 19.9143 21.0528 20.6526 20.3144L21.1882 19.7789C22.7503 18.2168 22.7503 15.6841 21.1882 14.122L20.2593 13.1931C18.986 11.9199 17.0189 11.6543 15.4536 12.5444L15.3571 12.5993C14.7157 12.964 13.9788 12.9342 13.4568 12.5564C13.0355 12.2516 12.6329 11.9307 12.3493 11.6471C12.0657 11.3635 11.7449 10.9609 11.44 10.5397C11.0622 10.0177 11.0324 9.28077 11.3972 8.63934L11.4521 8.54281C12.3421 6.97751 12.0766 5.01043 10.8033 3.73717L9.87445 2.80829C8.31235 1.24619 5.77969 1.2462 4.21759 2.80829L3.68206 3.34383ZM4.67135 5.91991C4.58756 5.57127 4.70942 5.14489 5.09627 4.75804L5.63181 4.22251C6.41286 3.44146 7.67918 3.44146 8.46023 4.2225L9.38911 5.15138C10.0257 5.78801 10.1585 6.77155 9.71348 7.5542L9.65859 7.65073C8.95368 8.89039 8.92895 10.4813 9.81983 11.7123C10.1471 12.1644 10.5403 12.6665 10.9351 13.0613C11.3299 13.4561 11.832 13.8494 12.2842 14.1766C13.5152 15.0675 15.1061 15.0428 16.3457 14.3379L16.4422 14.283C17.2249 13.8379 18.2084 13.9707 18.8451 14.6073L19.7739 15.5362C20.555 16.3173 20.555 17.5836 19.7739 18.3646L19.2384 18.9002C18.8516 19.287 18.4252 19.4089 18.0765 19.3251C16.6075 18.972 13.5841 17.8317 9.87445 14.122C6.16477 10.4123 5.02441 7.38895 4.67135 5.91991Z" fill="#737380"/>
<path d="M19.2681 5.67421C19.2383 5.16815 18.8346 4.76443 18.3285 4.73466L16.325 4.61681C15.7737 4.58437 15.3005 5.00503 15.268 5.55636C15.2397 6.03868 15.5581 6.46123 16.0073 6.58117L14.0271 8.56136C13.6366 8.95188 13.6366 9.58505 14.0271 9.97557C14.4177 10.3661 15.0508 10.3661 15.4414 9.97557L17.4216 7.99538C17.5415 8.44466 17.964 8.76305 18.4464 8.73468C18.9977 8.70224 19.4183 8.22901 19.3859 7.67768L19.2681 5.67421Z" fill="#737380"/>
</svg>
