<svg width="19" height="20" viewBox="0 0 19 20" fill="none" xmlns="http://www.w3.org/2000/svg">
<path fill-rule="evenodd" clip-rule="evenodd" d="M12.6272 0.579321C11.5165 0.420932 10.7199 1.34647 10.7199 2.29157V6.75166C10.7199 7.73696 11.5186 8.5357 12.5039 8.5357H16.964C17.9091 8.5357 18.8346 7.7391 18.6762 6.62838C18.23 3.49895 15.7566 1.02558 12.6272 0.579321ZM12.5039 2.29157C12.5032 2.2941 12.5004 2.30108 12.4903 2.31069C12.4817 2.31896 12.4662 2.33026 12.4427 2.33821C12.4177 2.34667 12.3931 2.34803 12.3753 2.34549C12.4183 2.35163 12.4612 2.35828 12.5039 2.36543V6.75166H16.8901C16.8973 6.79435 16.9039 6.83721 16.9101 6.88024C16.9075 6.86241 16.9089 6.83784 16.9173 6.81286C16.9253 6.78939 16.9366 6.77387 16.9449 6.76522C16.9545 6.75518 16.9614 6.75247 16.964 6.7518L16.8901 6.75166C16.5146 4.51116 14.7444 2.74092 12.5039 2.36543V2.29157Z" fill="white"/>
<path fill-rule="evenodd" clip-rule="evenodd" d="M9.82783 3.18359C9.82783 2.22793 9.03094 1.33419 7.94737 1.45377C3.48562 1.94619 0.015625 5.72712 0.015625 10.3197C0.015625 15.2462 4.00933 19.2399 8.93581 19.2399C13.5284 19.2399 17.3094 15.7699 17.8018 11.3082C17.9214 10.2246 17.0276 9.42772 16.072 9.42772H11.6119C10.6266 9.42772 9.82783 8.62898 9.82783 7.64368V3.18359ZM1.79966 10.3197C1.79966 6.68086 4.52401 3.6771 8.04379 3.2387V7.64368C8.04379 9.61427 9.64128 11.2118 11.6119 11.2118H16.0168C15.5785 14.7315 12.5747 17.4559 8.93581 17.4559C4.99463 17.4559 1.79966 14.2609 1.79966 10.3197Z" fill="white"/>
</svg>
