<svg width="16" height="12" viewBox="0 0 16 12" fill="none" xmlns="http://www.w3.org/2000/svg">
<path fill-rule="evenodd" clip-rule="evenodd" d="M13.0908 12C14.6974 12 15.9998 10.8061 15.9998 9.33333V3.34846C16.0001 3.33826 16.0001 3.32804 15.9998 3.3178V2.66667C15.9998 1.19391 14.6974 0 13.0908 0H2.90921C1.30261 0 0.00019344 1.19391 0.00019344 2.66667V3.3178C-6.50864e-05 3.32804 -6.38727e-05 3.33826 0.00019344 3.34845V9.33333C0.00019344 10.8061 1.30261 12 2.90921 12H13.0908ZM1.4547 9.33333C1.4547 10.0697 2.10591 10.6667 2.90921 10.6667H13.0908C13.8941 10.6667 14.5453 10.0697 14.5453 9.33333V4.31802L9.08038 6.32187C8.38684 6.57618 7.61316 6.57618 6.91962 6.32187L1.4547 4.31802V9.33333ZM8.54019 5.0839L14.5453 2.88198V2.66667C14.5453 1.93029 13.8941 1.33333 13.0908 1.33333H2.90921C2.10591 1.33333 1.4547 1.93029 1.4547 2.66667V2.88198L7.45981 5.0839C7.80658 5.21106 8.19342 5.21106 8.54019 5.0839Z" fill="#9E9EAA"/>
</svg>
