<svg width="20" height="20" viewBox="0 0 20 20" fill="none" xmlns="http://www.w3.org/2000/svg">
<path d="M3.57952 11.6523C3.81756 12.0462 3.69122 12.5585 3.29732 12.7965C2.90343 13.0346 2.39114 12.9082 2.1531 12.5143C1.81468 11.9544 1.58508 11.4718 1.45007 11.1603C1.25674 10.7143 1.2848 10.2121 1.52031 9.7915C1.8797 9.14973 2.78759 7.66611 4.18677 6.33307C5.58275 5.00308 7.54702 3.75 10.0004 3.75C12.4538 3.75 14.4181 5.00308 15.8141 6.33307C17.2133 7.66611 18.1212 9.14973 18.4806 9.7915C18.7161 10.2121 18.7441 10.7143 18.5508 11.1603C18.4158 11.4718 18.1862 11.9544 17.8478 12.5143C17.6097 12.9082 17.0974 13.0346 16.7035 12.7965C16.3096 12.5585 16.1833 12.0462 16.4213 11.6523C16.6935 11.2019 16.8824 10.8124 16.997 10.5537C16.6588 9.95778 15.858 8.67693 14.6644 7.53975C13.4315 6.36513 11.8587 5.41667 10.0004 5.41667C8.14214 5.41667 6.56932 6.36513 5.33642 7.53975C4.14282 8.67693 3.34202 9.95778 3.00389 10.5537C3.11846 10.8124 3.30733 11.2019 3.57952 11.6523Z" fill="#9E9EAA"/>
<path fill-rule="evenodd" clip-rule="evenodd" d="M10.0004 6.66667C7.69925 6.66667 5.83377 8.53215 5.83377 10.8333C5.83377 13.1345 7.69925 15 10.0004 15C12.3016 15 14.1671 13.1345 14.1671 10.8333C14.1671 8.53215 12.3016 6.66667 10.0004 6.66667ZM7.50043 10.8333C7.50043 9.45262 8.61972 8.33333 10.0004 8.33333C11.3811 8.33333 12.5004 9.45262 12.5004 10.8333C12.5004 12.214 11.3811 13.3333 10.0004 13.3333C8.61972 13.3333 7.50043 12.214 7.50043 10.8333Z" fill="#9E9EAA"/>
</svg>
