<svg width="17" height="17" viewBox="0 0 17 17" fill="none" xmlns="http://www.w3.org/2000/svg">
<path d="M14.667 2.33247C14.9437 2.60909 14.9437 3.05758 14.667 3.3342L3.3337 14.6675C3.05708 14.9442 2.60859 14.9442 2.33197 14.6675C2.05535 14.3909 2.05535 13.9424 2.33197 13.6658L13.6653 2.33247C13.9419 2.05584 14.3904 2.05584 14.667 2.33247Z" fill="#9E9EAA"/>
<path d="M11.1908 3.8052C10.393 3.42949 9.49349 3.1875 8.49949 3.1875C6.41409 3.1875 4.74446 4.25261 3.55788 5.38311C2.36857 6.5162 1.59687 7.77727 1.29139 8.32278C1.0912 8.68026 1.06735 9.10712 1.23168 9.48626C1.34644 9.75104 1.5416 10.1612 1.82925 10.6372C2.03159 10.972 2.46704 11.0794 2.80185 10.8771C3.13666 10.6747 3.24405 10.2393 3.04171 9.90447C2.81035 9.52163 2.64981 9.19055 2.55243 8.97063C2.83984 8.46411 3.52052 7.37539 4.53508 6.40879C5.58304 5.41036 6.91994 4.60417 8.49949 4.60417C9.06761 4.60417 9.60435 4.70846 10.1075 4.88848L11.1908 3.8052Z" fill="#9E9EAA"/>
<path d="M12.5303 6.47267C13.5082 7.42295 14.1655 8.47524 14.4465 8.97064C14.3492 9.19055 14.1886 9.52163 13.9573 9.90447C13.7549 10.2393 13.8623 10.6747 14.1971 10.8771C14.5319 11.0794 14.9674 10.972 15.1697 10.6372C15.4574 10.1612 15.6525 9.75104 15.7673 9.48626C15.9316 9.10712 15.9078 8.68026 15.7076 8.32278C15.41 7.79132 14.6698 6.58064 13.5321 5.47085L12.5303 6.47267Z" fill="#9E9EAA"/>
<path d="M8.4995 5.66667C8.75692 5.66667 9.00793 5.69413 9.24975 5.74629L7.79212 7.20391C7.18756 7.41727 6.70844 7.89639 6.49508 8.50095L5.03745 9.95858C4.9853 9.71676 4.95783 9.46575 4.95783 9.20833C4.95783 7.25232 6.54349 5.66667 8.4995 5.66667Z" fill="#9E9EAA"/>
<path d="M8.4995 11.3333C8.25097 11.3333 8.01239 11.2907 7.79071 11.2123L6.72747 12.2755C7.24868 12.5773 7.85392 12.75 8.4995 12.75C10.4555 12.75 12.0412 11.1643 12.0412 9.20833C12.0412 8.56275 11.8684 7.95751 11.5667 7.43631L10.5034 8.49955C10.5818 8.72123 10.6245 8.9598 10.6245 9.20833C10.6245 10.3819 9.67311 11.3333 8.4995 11.3333Z" fill="#9E9EAA"/>
</svg>
