<svg width="20" height="20" viewBox="0 0 20 20" fill="none" xmlns="http://www.w3.org/2000/svg">
<path d="M8.58203 5.50033H16.4362ZM8.58203 5.50033C8.58203 5.8208 8.45473 6.12814 8.22812 6.35475C8.00151 6.58135 7.69417 6.70866 7.3737 6.70866C7.05323 6.70866 6.74588 6.58135 6.51928 6.35475C6.29267 6.12814 6.16536 5.8208 6.16536 5.50033M8.58203 5.50033C8.58203 5.17986 8.45473 4.87251 8.22812 4.6459C8.00151 4.4193 7.69417 4.29199 7.3737 4.29199C7.05323 4.29199 6.74588 4.4193 6.51928 4.6459C6.29267 4.87251 6.16536 5.17986 6.16536 5.50033M3.14453 5.50033H6.16536ZM8.58203 15.167H16.4362ZM8.58203 15.167C8.58203 15.4875 8.45473 15.7948 8.22812 16.0214C8.00151 16.248 7.69417 16.3753 7.3737 16.3753C7.05323 16.3753 6.74588 16.248 6.51928 16.0214C6.29267 15.7948 6.16536 15.4875 6.16536 15.167M8.58203 15.167C8.58203 14.8465 8.45473 14.5392 8.22812 14.3126C8.00151 14.086 7.69417 13.9587 7.3737 13.9587C7.05323 13.9587 6.74588 14.086 6.51928 14.3126C6.29267 14.5392 6.16536 14.8465 6.16536 15.167M3.14453 15.167H6.16536ZM13.4154 10.3337H16.4362ZM13.4154 10.3337C13.4154 10.6541 13.2881 10.9615 13.0615 11.1881C12.8348 11.4147 12.5275 11.542 12.207 11.542C11.8866 11.542 11.5792 11.4147 11.3526 11.1881C11.126 10.9615 10.9987 10.6541 10.9987 10.3337M13.4154 10.3337C13.4154 10.0132 13.2881 9.70584 13.0615 9.47924C12.8348 9.25263 12.5275 9.12532 12.207 9.12532C11.8866 9.12532 11.5792 9.25263 11.3526 9.47924C11.126 9.70584 10.9987 10.0132 10.9987 10.3337M3.14453 10.3337H10.9987Z" fill="#5C5C66"/>
<path d="M8.58203 5.50033H16.4362M8.58203 5.50033C8.58203 5.8208 8.45473 6.12814 8.22812 6.35475C8.00151 6.58135 7.69417 6.70866 7.3737 6.70866C7.05323 6.70866 6.74588 6.58135 6.51928 6.35475C6.29267 6.12814 6.16536 5.8208 6.16536 5.50033M8.58203 5.50033C8.58203 5.17986 8.45473 4.87251 8.22812 4.6459C8.00151 4.4193 7.69417 4.29199 7.3737 4.29199C7.05323 4.29199 6.74588 4.4193 6.51928 4.6459C6.29267 4.87251 6.16536 5.17986 6.16536 5.50033M6.16536 5.50033H3.14453M8.58203 15.167H16.4362M8.58203 15.167C8.58203 15.4875 8.45473 15.7948 8.22812 16.0214C8.00151 16.248 7.69417 16.3753 7.3737 16.3753C7.05323 16.3753 6.74588 16.248 6.51928 16.0214C6.29267 15.7948 6.16536 15.4875 6.16536 15.167M8.58203 15.167C8.58203 14.8465 8.45473 14.5392 8.22812 14.3126C8.00151 14.086 7.69417 13.9587 7.3737 13.9587C7.05323 13.9587 6.74588 14.086 6.51928 14.3126C6.29267 14.5392 6.16536 14.8465 6.16536 15.167M6.16536 15.167H3.14453M13.4154 10.3337H16.4362M13.4154 10.3337C13.4154 10.6541 13.2881 10.9615 13.0615 11.1881C12.8348 11.4147 12.5275 11.542 12.207 11.542C11.8866 11.542 11.5792 11.4147 11.3526 11.1881C11.126 10.9615 10.9987 10.6541 10.9987 10.3337M13.4154 10.3337C13.4154 10.0132 13.2881 9.70584 13.0615 9.47924C12.8348 9.25263 12.5275 9.12532 12.207 9.12532C11.8866 9.12532 11.5792 9.25263 11.3526 9.47924C11.126 9.70584 10.9987 10.0132 10.9987 10.3337M10.9987 10.3337H3.14453" stroke="#5C5C66" stroke-width="1.20833" stroke-linecap="round" stroke-linejoin="round"/>
</svg>
