<svg width="93" height="93" viewBox="0 0 93 93" fill="none" xmlns="http://www.w3.org/2000/svg">
<circle cx="46.5" cy="46.5" r="46" fill="#D5DED5"/>
<path d="M56.6151 43.0262C57.736 41.9996 57.8125 40.2587 56.7859 39.1378C55.7593 38.0169 54.0184 37.9404 52.8975 38.967L42.7364 48.2732L40.1023 45.8607C38.9814 44.8341 37.2405 44.9105 36.2139 46.0314C35.1873 47.1523 35.2638 48.8932 36.3847 49.9198L40.8776 54.0347C41.9295 54.9981 43.5433 54.9981 44.5952 54.0347L56.6151 43.0262Z" fill="#006400"/>
<path fill-rule="evenodd" clip-rule="evenodd" d="M46.4999 18.9795C31.3003 18.9795 18.9785 31.3012 18.9785 46.5009C18.9785 61.7005 31.3003 74.0222 46.4999 74.0222C61.6995 74.0222 74.0213 61.7005 74.0213 46.5009C74.0213 31.3012 61.6995 18.9795 46.4999 18.9795ZM24.4828 46.5009C24.4828 34.3412 34.3402 24.4838 46.4999 24.4838C58.6596 24.4838 68.517 34.3412 68.517 46.5009C68.517 58.6606 58.6596 68.518 46.4999 68.518C34.3402 68.518 24.4828 58.6606 24.4828 46.5009Z" fill="#006400"/>
</svg>
