<svg width="20" height="17" viewBox="0 0 20 17" fill="none" xmlns="http://www.w3.org/2000/svg">
<path d="M10 0C4.47715 0 0 4.47715 0 10V15C0 15.5523 0.447715 16 1 16C1.03722 16 1.07396 15.998 1.11012 15.994C1.34236 16.5831 1.91661 17 2.58824 17C3.46539 17 4.17647 16.2889 4.17647 15.4118V13.2507C4.17647 11.9559 2.93695 11.4146 2 11.7484V10C2 5.58172 5.58172 2 10 2C14.4183 2 18 5.58172 18 10V11.7379C17.0636 11.4038 15.8235 11.9429 15.8235 13.2389V15.4118C15.8235 16.2889 16.5346 17 17.4118 17C18.0834 17 18.6577 16.5831 18.8899 15.994C18.9261 15.998 18.9628 16 19 16C19.5523 16 20 15.5523 20 15V10C20 4.47715 15.5228 0 10 0Z" fill="black"/>
</svg>
