<svg width="19" height="19" viewBox="0 0 19 19" fill="none" xmlns="http://www.w3.org/2000/svg">
<path d="M4.06682 1.61077C4.06682 1.11812 3.66745 0.71875 3.1748 0.71875C2.68215 0.71875 2.28278 1.11812 2.28278 1.61077V4.82204C2.28278 5.31468 2.68215 5.71405 3.1748 5.71405H6.38665C6.8793 5.71405 7.27867 5.31468 7.27867 4.82204C7.27867 4.32939 6.8793 3.93002 6.38665 3.93002H5.31531C6.50854 3.03333 7.99121 2.50279 9.59792 2.50279C13.5391 2.50279 16.7341 5.69775 16.7341 9.63894C16.7341 13.5801 13.5391 16.7751 9.59792 16.7751C5.65674 16.7751 2.46177 13.5801 2.46177 9.63894C2.46177 9.14629 2.0624 8.74692 1.56975 8.74692C1.0771 8.74692 0.677734 9.14629 0.677734 9.63894C0.677734 14.5654 4.67144 18.5591 9.59792 18.5591C14.5244 18.5591 18.5181 14.5654 18.5181 9.63894C18.5181 4.71245 14.5244 0.71875 9.59792 0.71875C7.5084 0.71875 5.58666 1.43768 4.06682 2.6403V1.61077Z" fill="#5C5C66"/>
<path d="M9.59792 6.51687C9.59792 6.02422 9.19855 5.62485 8.7059 5.62485C8.21325 5.62485 7.81388 6.02422 7.81388 6.51687V10.977C7.81388 11.4696 8.21325 11.869 8.7059 11.869H11.382C11.8746 11.869 12.274 11.4696 12.274 10.977C12.274 10.4843 11.8746 10.0849 11.382 10.0849H9.59792V6.51687Z" fill="#5C5C66"/>
</svg>
