<svg width="23" height="24" viewBox="0 0 23 24" fill="none" xmlns="http://www.w3.org/2000/svg">
<path d="M8.52311 21.0818V17.8924C8.52309 17.0812 9.18445 16.422 10.0039 16.4166H13.0054C13.8287 16.4166 14.4961 17.0773 14.4961 17.8924V17.8924V21.0917C14.4959 21.7805 15.0512 22.3434 15.7468 22.3596H17.7478C19.7425 22.3596 21.3596 20.7587 21.3596 18.7839V18.7839V9.71092C21.349 8.93403 20.9805 8.20449 20.3591 7.72992L13.5156 2.27228C12.3167 1.322 10.6125 1.322 9.41356 2.27228L2.60012 7.73983C1.97636 8.21247 1.60729 8.94322 1.59961 9.72082V18.7839C1.59961 20.7587 3.21668 22.3596 5.21144 22.3596H7.21245C7.92526 22.3596 8.5031 21.7875 8.5031 21.0818V21.0818" stroke="white" stroke-width="2" stroke-linecap="round" stroke-linejoin="round"/>
</svg>
