<svg width="21" height="20" viewBox="0 0 21 20" fill="none" xmlns="http://www.w3.org/2000/svg">
<path fill-rule="evenodd" clip-rule="evenodd" d="M11.4894 5.28871C12.5288 4.92134 13.2734 3.93009 13.2734 2.76492C13.2734 1.28698 12.0753 0.0888672 10.5974 0.0888672C9.11942 0.0888672 7.92131 1.28698 7.92131 2.76492C7.92131 3.93009 8.66597 4.92134 9.70534 5.28871V9.00905H6.13727C4.16668 9.00905 2.56919 10.6065 2.56919 12.5771V14.5134C1.52982 14.8808 0.785156 15.8721 0.785156 17.0372C0.785156 18.5152 1.98327 19.7133 3.46121 19.7133C4.93916 19.7133 6.13727 18.5152 6.13727 17.0372C6.13727 15.8721 5.3926 14.8808 4.35323 14.5134V12.5771C4.35323 11.5918 5.15197 10.7931 6.13727 10.7931H9.70534L9.70534 14.5134C8.66597 14.8808 7.92131 15.8721 7.92131 17.0372C7.92131 18.5152 9.11942 19.7133 10.5974 19.7133C12.0753 19.7133 13.2734 18.5152 13.2734 17.0372C13.2734 15.8721 12.5288 14.8808 11.4894 14.5134L11.4894 10.7931H15.0575C16.0428 10.7931 16.8415 11.5918 16.8415 12.5771V14.5134C15.8021 14.8808 15.0575 15.8721 15.0575 17.0372C15.0575 18.5152 16.2556 19.7133 17.7335 19.7133C19.2115 19.7133 20.4096 18.5152 20.4096 17.0372C20.4096 15.8721 19.6649 14.8808 18.6255 14.5134V12.5771C18.6255 10.6065 17.028 9.00905 15.0575 9.00905H11.4894V5.28871ZM10.5974 1.8729C11.09 1.8729 11.4894 2.27228 11.4894 2.76492C11.4894 3.25757 11.09 3.65694 10.5974 3.65694C10.1047 3.65694 9.70534 3.25757 9.70534 2.76492C9.70534 2.27228 10.1047 1.8729 10.5974 1.8729ZM17.7335 16.1452C17.2409 16.1452 16.8415 16.5446 16.8415 17.0372C16.8415 17.5299 17.2409 17.9292 17.7335 17.9292C18.2262 17.9292 18.6255 17.5299 18.6255 17.0372C18.6255 16.5446 18.2262 16.1452 17.7335 16.1452ZM10.5974 16.1452C11.09 16.1452 11.4894 16.5446 11.4894 17.0372C11.4894 17.5299 11.09 17.9292 10.5974 17.9292C10.1047 17.9292 9.70534 17.5299 9.70534 17.0372C9.70534 16.5446 10.1047 16.1452 10.5974 16.1452ZM3.46121 16.1452C3.95386 16.1452 4.35323 16.5446 4.35323 17.0372C4.35323 17.5299 3.95386 17.9292 3.46121 17.9292C2.96856 17.9292 2.56919 17.5299 2.56919 17.0372C2.56919 16.5446 2.96856 16.1452 3.46121 16.1452Z" fill="#5C5C66"/>
</svg>
