<svg width="24" height="24" viewBox="0 0 24 24" fill="none" xmlns="http://www.w3.org/2000/svg">
<path fill-rule="evenodd" clip-rule="evenodd" d="M19.0012 21C21.2104 21 23.0012 19.2091 23.0012 17V8.02268C23.0016 8.00739 23.0016 7.99206 23.0012 7.9767V7C23.0012 4.79086 21.2104 3 19.0012 3H5.00124C2.7921 3 1.00124 4.79086 1.00124 7V7.97671C1.00089 7.99206 1.00089 8.00739 1.00124 8.02268V17C1.00124 19.2091 2.7921 21 5.00124 21H19.0012ZM3.00124 17C3.00124 18.1046 3.89667 19 5.00124 19H19.0012C20.1058 19 21.0012 18.1046 21.0012 17V9.47703L13.4868 12.4828C12.5332 12.8643 11.4693 12.8643 10.5157 12.4828L3.00124 9.47703V17ZM12.744 10.6259L21.0012 7.32297V7C21.0012 5.89543 20.1058 5 19.0012 5H5.00124C3.89667 5 3.00124 5.89543 3.00124 7V7.32297L11.2585 10.6259C11.7353 10.8166 12.2672 10.8166 12.744 10.6259Z" fill="#737380"/>
</svg>
