<svg width="18" height="18" viewBox="0 0 18 18" fill="none" xmlns="http://www.w3.org/2000/svg">
<path fill-rule="evenodd" clip-rule="evenodd" d="M9.00047 4.39481C7.24007 4.39481 5.81297 5.82191 5.81297 7.58231C5.81297 9.34272 7.24007 10.7698 9.00047 10.7698C10.7609 10.7698 12.188 9.34272 12.188 7.58231C12.188 5.82191 10.7609 4.39481 9.00047 4.39481ZM7.22964 7.58231C7.22964 6.60431 8.02247 5.81148 9.00047 5.81148C9.97848 5.81148 10.7713 6.60431 10.7713 7.58231C10.7713 8.56032 9.97848 9.35315 9.00047 9.35315C8.02247 9.35315 7.22964 8.56032 7.22964 7.58231Z" fill="#77797D"/>
<path fill-rule="evenodd" clip-rule="evenodd" d="M6.03202 3.04331C7.82957 1.84494 10.1714 1.84494 11.9689 3.04331C14.3991 4.66345 15.0814 7.93295 13.502 10.3898L10.788 14.6116C9.9515 15.9128 8.04945 15.9128 7.21297 14.6116L4.49895 10.3898C2.91952 7.93295 3.6018 4.66345 6.03202 3.04331ZM6.81785 4.22204C8.13954 3.34092 9.86141 3.34092 11.1831 4.22204C12.97 5.4133 13.4716 7.81727 12.3103 9.62375L9.59631 13.8456C9.31748 14.2793 8.68347 14.2793 8.40464 13.8456L5.69062 9.62375C4.52931 7.81727 5.03097 5.4133 6.81785 4.22204Z" fill="#77797D"/>
</svg>
