<svg width="23" height="22" viewBox="0 0 23 22" fill="none" xmlns="http://www.w3.org/2000/svg">
<path d="M18.9587 4.29395H4.24037C3.8855 4.29395 3.54517 4.43492 3.29424 4.68584C3.04331 4.93677 2.90234 5.27711 2.90234 5.63197V14.5522C2.90234 14.907 3.04331 15.2474 3.29424 15.4983C3.54517 15.7492 3.8855 15.8902 4.24037 15.8902H4.97183V19.1907L8.65586 15.8902H18.9587C19.3135 15.8902 19.6539 15.7492 19.9048 15.4983C20.1557 15.2474 20.2967 14.907 20.2967 14.5522V5.63197C20.2967 5.27711 20.1557 4.93677 19.9048 4.68584C19.6539 4.43492 19.3135 4.29395 18.9587 4.29395Z" stroke="#1C1C1F" stroke-width="0.464593" stroke-linecap="round" stroke-linejoin="round"/>
<path d="M11.5999 11.5416C12.4005 11.5416 13.0495 10.8927 13.0495 10.0921C13.0495 9.29155 12.4005 8.64258 11.5999 8.64258C10.7994 8.64258 10.1504 9.29155 10.1504 10.0921C10.1504 10.8927 10.7994 11.5416 11.5999 11.5416Z" stroke="#1C1C1F" stroke-width="0.464593" stroke-linecap="round" stroke-linejoin="round"/>
<path d="M7.13898 11.5416C7.93954 11.5416 8.58851 10.8927 8.58851 10.0921C8.58851 9.29155 7.93954 8.64258 7.13898 8.64258C6.33843 8.64258 5.68945 9.29155 5.68945 10.0921C5.68945 10.8927 6.33843 11.5416 7.13898 11.5416Z" stroke="#1C1C1F" stroke-width="0.464593" stroke-linecap="round" stroke-linejoin="round"/>
<path d="M16.0589 11.5416C16.8595 11.5416 17.5084 10.8927 17.5084 10.0921C17.5084 9.29155 16.8595 8.64258 16.0589 8.64258C15.2584 8.64258 14.6094 9.29155 14.6094 10.0921C14.6094 10.8927 15.2584 11.5416 16.0589 11.5416Z" stroke="#1C1C1F" stroke-width="0.464593" stroke-linecap="round" stroke-linejoin="round"/>
</svg>
