<svg width="18" height="21" viewBox="0 0 18 21" fill="none" xmlns="http://www.w3.org/2000/svg">
<path fill-rule="evenodd" clip-rule="evenodd" d="M10.0004 0.992188C10.0004 0.439903 9.55264 -0.0078125 9.00035 -0.0078125C8.44807 -0.0078125 8.00035 0.439903 8.00035 0.992188V1.56305C4.60823 2.04811 2.00035 4.96442 2.00035 8.49109L2.00035 12.4915C2.00035 12.4915 2.00036 12.4913 2.00035 12.4915C2.00025 12.4934 1.99957 12.5068 1.99524 12.533C1.99003 12.5645 1.98079 12.6074 1.96553 12.6625C1.93461 12.7742 1.88539 12.9132 1.81662 13.0777C1.67876 13.4073 1.4844 13.7868 1.26944 14.1698C0.865295 14.8897 0.66158 15.7476 0.814518 16.5634C0.975802 17.4238 1.52959 18.1741 2.47541 18.5342C3.32032 18.8559 4.44498 19.1501 5.93021 19.3252C5.96555 19.3558 6.00734 19.3909 6.05534 19.4293C6.20563 19.5495 6.42035 19.7054 6.69171 19.8604C7.23028 20.1682 8.02657 20.4922 9.00035 20.4922C9.97413 20.4922 10.7704 20.1682 11.309 19.8604C11.5804 19.7054 11.7951 19.5495 11.9454 19.4293C11.9934 19.3909 12.0352 19.3558 12.0705 19.3252C13.5557 19.1501 14.6804 18.8559 15.5253 18.5342C16.4711 18.1741 17.0249 17.4238 17.1862 16.5634C17.3391 15.7476 17.1354 14.8897 16.7313 14.1698C16.5163 13.7868 16.3219 13.4073 16.1841 13.0777C16.1153 12.9132 16.0661 12.7742 16.0352 12.6625C16.0199 12.6074 16.0107 12.5645 16.0055 12.533C16.0011 12.5068 16.0005 12.4936 16.0004 12.4917C16.0004 12.4916 16.0004 12.4917 16.0004 12.4917L16.0004 12.4833V8.49157C16.0004 4.96499 13.3926 2.0482 10.0004 1.56306V0.992188ZM4.00035 8.49109C4.00035 5.72991 6.23869 3.49219 9.00035 3.49219C11.7619 3.49219 14.0004 5.73028 14.0004 8.49157V12.4922C14.0004 12.9551 14.1738 13.4545 14.3389 13.8493C14.5183 14.2783 14.7534 14.7322 14.9873 15.1488C15.2146 15.5538 15.2689 15.9366 15.2204 16.1949C15.1803 16.4087 15.0735 16.5662 14.8136 16.6651C13.7387 17.0744 11.9243 17.4922 9.00035 17.4922C6.07642 17.4922 4.26196 17.0744 3.1871 16.6651C2.92724 16.5662 2.82036 16.4087 2.78028 16.1949C2.73185 15.9366 2.78606 15.5538 3.01344 15.1488C3.24729 14.7322 3.48238 14.2783 3.66177 13.8493C3.8269 13.4545 4.00035 12.9551 4.00035 12.4922V8.49109Z" fill="#000050"/>
</svg>
