<svg width="18" height="19" viewBox="0 0 18 19" fill="none" xmlns="http://www.w3.org/2000/svg">
<path fill-rule="evenodd" clip-rule="evenodd" d="M9.01439 4.12173C10.3276 4.12173 11.3922 5.18632 11.3922 6.49955C11.3922 7.81279 10.3276 8.87737 9.01439 8.87737C7.70115 8.87737 6.63657 7.81279 6.63657 6.49955C6.63657 5.18632 7.70115 4.12173 9.01439 4.12173ZM9.60817 6.49955C9.60817 6.17162 9.34233 5.90577 9.01439 5.90577C8.68645 5.90577 8.4206 6.17162 8.4206 6.49955C8.4206 6.82749 8.68645 7.09334 9.01439 7.09334C9.34233 7.09334 9.60817 6.82749 9.60817 6.49955Z" fill="#5C5C66"/>
<path fill-rule="evenodd" clip-rule="evenodd" d="M0.693359 3.9753C0.693359 2.00471 2.29084 0.407227 4.26143 0.407227H13.7673C15.7379 0.407227 17.3354 2.00471 17.3354 3.9753V9.0238C17.3354 9.50994 17.2382 9.97336 17.0621 10.3957L16.8122 12.2331C16.7133 12.9603 16.4046 13.6005 15.9588 14.1068C15.947 14.1437 15.9326 14.1803 15.9157 14.2163L15.0704 16.0079C14.1193 18.0237 11.5735 18.6838 9.76279 17.3841L2.10053 11.8843C2.03599 11.838 1.97948 11.7846 1.93129 11.726C1.17319 11.0717 0.693359 10.1038 0.693359 9.0238V3.9753ZM13.7673 12.5919C14.1789 12.5919 14.5741 12.5222 14.942 12.394C14.6181 13.2383 13.6866 13.7309 12.7758 13.4645L9.79312 12.5919H13.7673ZM3.10161 2.61967C2.71953 2.94688 2.4774 3.43281 2.4774 3.9753V9.0238C2.4774 9.56629 2.71953 10.0522 3.10161 10.3794C2.9889 10.2301 2.92206 10.0441 2.92206 9.84261C2.92206 9.34996 3.32143 8.95059 3.81408 8.95059H5.29988C5.79253 8.95059 6.1919 9.34996 6.1919 9.84261C6.1919 10.3353 5.79253 10.7346 5.29988 10.7346H3.81408C3.7909 10.7346 3.76792 10.7337 3.74518 10.732C3.9086 10.7813 4.08192 10.8078 4.26144 10.8078H13.7673C13.9469 10.8078 14.1202 10.7813 14.2836 10.732C14.2609 10.7337 14.2379 10.7346 14.2147 10.7346H12.7289C12.2362 10.7346 11.8369 10.3353 11.8369 9.84261C11.8369 9.34996 12.2362 8.95059 12.7289 8.95059H14.2147C14.7073 8.95059 15.1067 9.34996 15.1067 9.84261C15.1067 10.0441 15.0399 10.2301 14.9272 10.3794C15.3092 10.0522 15.5514 9.56629 15.5514 9.0238V3.9753C15.5514 3.43281 15.3092 2.94688 14.9272 2.61968C15.0399 2.76904 15.1067 2.95496 15.1067 3.1565C15.1067 3.64915 14.7073 4.04852 14.2147 4.04852H12.7289C12.2362 4.04852 11.8369 3.64915 11.8369 3.1565C11.8369 2.66385 12.2362 2.26448 12.7289 2.26448H14.2147C14.2379 2.26448 14.2609 2.26536 14.2836 2.2671C14.1202 2.21778 13.9469 2.19126 13.7673 2.19126H4.26143C4.08192 2.19126 3.9086 2.21778 3.74518 2.2671C3.76792 2.26536 3.7909 2.26448 3.81408 2.26448H5.29988C5.79253 2.26448 6.1919 2.66385 6.1919 3.1565C6.1919 3.64915 5.79253 4.04852 5.29988 4.04852H3.81408C3.32143 4.04852 2.92206 3.64915 2.92206 3.1565C2.92206 2.95496 2.9889 2.76903 3.10161 2.61967ZM13.4208 15.319C13.0448 15.334 12.6589 15.2891 12.2748 15.1767L8.00782 13.9284L10.8031 15.9348C11.6864 16.5689 12.9197 16.2701 13.4208 15.319Z" fill="#5C5C66"/>
</svg>
