<svg width="17" height="16" viewBox="0 0 17 16" fill="none" xmlns="http://www.w3.org/2000/svg">
<path d="M1.46094 13.5173C1.46094 12.571 1.83686 11.6634 2.506 10.9943C3.17515 10.3251 4.0827 9.94922 5.02901 9.94922H12.1652C13.1115 9.94922 14.019 10.3251 14.6882 10.9943C15.3573 11.6634 15.7332 12.571 15.7332 13.5173C15.7332 13.9904 15.5453 14.4442 15.2107 14.7788C14.8761 15.1134 14.4224 15.3013 13.9492 15.3013H3.24498C2.77182 15.3013 2.31804 15.1134 1.98347 14.7788C1.6489 14.4442 1.46094 13.9904 1.46094 13.5173Z" stroke="#545454" stroke-width="1.33803" stroke-linejoin="round"/>
<path d="M8.59793 6.38141C10.0759 6.38141 11.274 5.1833 11.274 3.70535C11.274 2.22741 10.0759 1.0293 8.59793 1.0293C7.11999 1.0293 5.92188 2.22741 5.92188 3.70535C5.92188 5.1833 7.11999 6.38141 8.59793 6.38141Z" stroke="#545454" stroke-width="1.33803"/>
</svg>
