<svg width="12" height="15" viewBox="0 0 12 15" fill="none" xmlns="http://www.w3.org/2000/svg">
<path fill-rule="evenodd" clip-rule="evenodd" d="M6.33825 0.0512695C4.41942 0.0512695 2.8639 1.60679 2.8639 3.52561C2.8639 5.44444 4.41942 6.99996 6.33825 6.99996C8.25708 6.99996 9.8126 5.44444 9.8126 3.52561C9.8126 1.60679 8.25708 0.0512695 6.33825 0.0512695ZM4.25364 3.52561C4.25364 2.37432 5.18695 1.44101 6.33825 1.44101C7.48955 1.44101 8.42286 2.37432 8.42286 3.52561C8.42286 4.67691 7.48955 5.61022 6.33825 5.61022C5.18695 5.61022 4.25364 4.67691 4.25364 3.52561Z" fill="#5C5C66"/>
<path fill-rule="evenodd" clip-rule="evenodd" d="M6.33825 14.6435C5.2678 14.6435 3.71847 14.4005 2.55499 13.8912C1.9838 13.6413 1.40291 13.2835 1.06541 12.7656C0.887916 12.4932 0.775707 12.1724 0.779385 11.8142C0.783029 11.4592 0.899814 11.1192 1.0961 10.8028C2.04765 9.26914 3.99431 7.69483 6.33825 7.69483C8.68218 7.69483 10.6288 9.26914 11.5804 10.8028C11.7767 11.1192 11.8935 11.4592 11.8971 11.8142C11.9008 12.1724 11.7886 12.4932 11.6111 12.7656C11.2736 13.2835 10.6927 13.6413 10.1215 13.8912C8.95803 14.4005 7.40869 14.6435 6.33825 14.6435ZM2.27701 11.5355C2.18552 11.683 2.16957 11.7777 2.16905 11.8284C2.16856 11.8759 2.18075 11.9316 2.22974 12.0068C2.34521 12.184 2.62561 12.4051 3.1122 12.6181C4.06425 13.0348 5.41632 13.2538 6.33825 13.2538C7.26017 13.2538 8.61225 13.0348 9.5643 12.6181C10.0509 12.4051 10.3313 12.184 10.4468 12.0068C10.4957 11.9316 10.5079 11.8759 10.5075 11.8284C10.5069 11.7777 10.491 11.683 10.3995 11.5355C9.61974 10.2787 8.06454 9.08457 6.33825 9.08457C4.61196 9.08457 3.05676 10.2787 2.27701 11.5355Z" fill="#5C5C66"/>
</svg>
