<svg width="23" height="18" viewBox="0 0 23 18" fill="none" xmlns="http://www.w3.org/2000/svg">
<path fill-rule="evenodd" clip-rule="evenodd" d="M17.6055 7.81326C19.0563 7.60942 20.1732 6.36558 20.1763 4.85862C20.1763 3.3735 19.0937 2.14214 17.6741 1.90918" fill="#737380"/>
<path d="M17.6055 7.81326C19.0563 7.60942 20.1732 6.36558 20.1763 4.85862C20.1763 3.3735 19.0937 2.14214 17.6741 1.90918" stroke="#737380" stroke-width="1.248" stroke-linecap="round" stroke-linejoin="round"/>
<path fill-rule="evenodd" clip-rule="evenodd" d="M19.5176 11.3008C20.9226 11.5109 21.9033 12.0028 21.9033 13.0168C21.9033 13.7146 21.4416 14.1681 20.6949 14.453" fill="#737380"/>
<path d="M19.5176 11.3008C20.9226 11.5109 21.9033 12.0028 21.9033 13.0168C21.9033 13.7146 21.4416 14.1681 20.6949 14.453" stroke="#737380" stroke-width="1.248" stroke-linecap="round" stroke-linejoin="round"/>
<path fill-rule="evenodd" clip-rule="evenodd" d="M11.3634 11.7314C8.02082 11.7314 5.16602 12.2379 5.16602 14.2607C5.16602 16.2825 8.00314 16.8035 11.3634 16.8035C14.7059 16.8035 17.5597 16.3022 17.5597 14.2784C17.5597 12.2546 14.7236 11.7314 11.3634 11.7314Z" fill="#737380" stroke="#737380" stroke-width="1.248" stroke-linecap="round" stroke-linejoin="round"/>
<path fill-rule="evenodd" clip-rule="evenodd" d="M11.3624 8.84391C13.5558 8.84391 15.3342 7.06655 15.3342 4.87215C15.3342 2.67879 13.5558 0.900391 11.3624 0.900391C9.16905 0.900391 7.39065 2.67879 7.39065 4.87215C7.38233 7.05823 9.14721 8.83663 11.3333 8.84391H11.3624Z" fill="#737380" stroke="#737380" stroke-width="1.248" stroke-linecap="round" stroke-linejoin="round"/>
<path fill-rule="evenodd" clip-rule="evenodd" d="M5.11971 7.81326C3.66787 7.60942 2.55195 6.36558 2.54883 4.85862C2.54883 3.3735 3.63147 2.14214 5.05107 1.90918" fill="#737380"/>
<path d="M5.11971 7.81326C3.66787 7.60942 2.55195 6.36558 2.54883 4.85862C2.54883 3.3735 3.63147 2.14214 5.05107 1.90918" stroke="#737380" stroke-width="1.248" stroke-linecap="round" stroke-linejoin="round"/>
<path fill-rule="evenodd" clip-rule="evenodd" d="M3.20607 11.3008C1.80103 11.5109 0.820312 12.0028 0.820312 13.0168C0.820312 13.7146 1.28207 14.1681 2.02879 14.453" fill="#737380"/>
<path d="M3.20607 11.3008C1.80103 11.5109 0.820312 12.0028 0.820312 13.0168C0.820312 13.7146 1.28207 14.1681 2.02879 14.453" stroke="#737380" stroke-width="1.248" stroke-linecap="round" stroke-linejoin="round"/>
</svg>
