<svg width="20" height="19" viewBox="0 0 20 19" fill="none" xmlns="http://www.w3.org/2000/svg">
<path d="M17.966 11.5158L17.9214 11.0724L17.908 11.0733L17.8928 11.076L17.966 11.5158ZM17.966 11.5158L18.0106 11.96L18.0258 11.9582L18.04 11.9555L17.966 11.5158ZM14.3622 16.4058L14.645 16.0606L14.6405 16.0579L14.3622 16.4058ZM14.3622 16.4058L14.0795 16.751L14.0839 16.7546L14.3622 16.4058ZM6.15923 16.4058L5.87646 16.0615L5.87021 16.0669L5.86308 16.0731L6.15923 16.4058ZM6.15923 16.4058L6.442 16.7519L6.44913 16.7457L6.45538 16.7403L6.15923 16.4058ZM2.55458 7.70507V7.25906H2.53317L2.51087 7.26085L2.55458 7.70507ZM2.55458 7.70507V8.15108H2.57688L2.59918 8.1484L2.55458 7.70507ZM12.6085 1.85967C12.5952 1.69794 12.5764 1.53669 12.5523 1.3762C12.5319 1.23419 12.4892 1.0963 12.4257 0.967652L11.6327 1.37709C11.6416 1.39493 11.6567 1.43061 11.6719 1.52338C11.6888 1.6215 11.7013 1.74906 11.7219 1.94798L12.6085 1.85967ZM12.7834 2.93277C12.7727 2.91939 12.7405 2.86498 12.7058 2.67408C12.6642 2.40381 12.633 2.13217 12.6103 1.85967L11.7219 1.94798C11.7575 2.30568 11.787 2.60183 11.828 2.83197C11.8681 3.05676 11.9306 3.28601 12.0742 3.47423L12.7834 2.93277ZM13.1973 3.10404C13.1193 3.11453 13.0399 3.10421 12.9672 3.07413C12.8946 3.04405 12.8311 2.99528 12.7834 2.93277L12.0733 3.47333C12.2166 3.66118 12.407 3.80775 12.6252 3.89815C12.8435 3.98855 13.0818 4.01956 13.3159 3.98803L13.1973 3.10404ZM14.0786 2.46803C13.7887 2.7062 13.5906 2.86765 13.4345 2.97559C13.2749 3.0862 13.2133 3.10136 13.1973 3.10404L13.3159 3.98803C13.5496 3.95681 13.7557 3.83906 13.9439 3.70793C14.1357 3.57413 14.3649 3.38681 14.6441 3.15845L14.0786 2.46803ZM14.8386 1.96761C14.6958 2.0131 14.5754 2.08535 14.4612 2.16653C14.3506 2.24502 14.2249 2.3485 14.0786 2.46803L14.6441 3.15845C14.7984 3.03178 14.8983 2.95061 14.9786 2.89352C15.0185 2.8614 15.063 2.83554 15.1106 2.81681L14.8386 1.96761ZM15.7779 2.01399C15.4807 1.88538 15.147 1.8689 14.8386 1.96761L15.1106 2.81681C15.2132 2.78432 15.3241 2.79002 15.4228 2.83286L15.7779 2.01399ZM16.4843 2.58845C16.3505 2.45465 16.2355 2.33869 16.1338 2.24948C16.0283 2.15274 15.9082 2.07326 15.7779 2.01399L15.4228 2.83286C15.4416 2.84089 15.4755 2.85962 15.5468 2.92207C15.6209 2.98629 15.7119 3.07728 15.8537 3.21911L16.4843 2.58845ZM17.2809 3.38502L16.4843 2.58845L15.8537 3.21911L16.6503 4.01568L17.2809 3.38502ZM17.8554 4.0915C17.7958 3.96117 17.716 3.84105 17.619 3.73559C17.5298 3.6339 17.4138 3.51883 17.2809 3.38502L16.6503 4.01568C16.7921 4.15751 16.8822 4.2485 16.9482 4.32254C17.0106 4.3939 17.0285 4.42779 17.0365 4.44653L17.8554 4.0915ZM17.9018 5.0308C18.0005 4.7224 17.984 4.38867 17.8554 4.0915L17.0365 4.44653C17.0791 4.54536 17.0844 4.65624 17.0517 4.75873L17.9018 5.0308ZM17.4013 5.7908C17.5209 5.64451 17.6243 5.51873 17.7028 5.40812C17.7831 5.29394 17.8563 5.17352 17.9018 5.0308L17.0517 4.75873C17.0332 4.80632 17.0077 4.85084 16.9758 4.89075C16.8909 5.00486 16.8025 5.11641 16.7109 5.22526L17.4013 5.7908ZM16.7653 6.67211C16.768 6.65606 16.7832 6.59451 16.8938 6.43484C17.0017 6.27873 17.1632 6.0807 17.4013 5.7908L16.7109 5.22526C16.4826 5.50446 16.2943 5.73371 16.1614 5.92549C16.0303 6.11282 15.9126 6.31977 15.8813 6.55347L16.7653 6.67211ZM16.9366 7.08601C16.8741 7.03825 16.8253 6.97481 16.7952 6.90212C16.7652 6.82943 16.7548 6.75008 16.7653 6.67211L15.8813 6.55347C15.85 6.78745 15.8811 7.02556 15.9715 7.24364C16.0618 7.46172 16.2083 7.652 16.396 7.79516L16.9366 7.08601ZM18.0097 7.25995C17.6359 7.22249 17.3826 7.19751 17.1953 7.16362C17.0044 7.12883 16.95 7.09671 16.9366 7.08601L16.396 7.79516C16.5834 7.93789 16.8126 8.00033 17.0383 8.04136C17.2675 8.08239 17.5628 8.11272 17.9214 8.1484L18.0097 7.25995ZM18.9017 7.44371C18.7731 7.38021 18.6352 7.33746 18.4932 7.31704C18.3594 7.29474 18.197 7.27869 18.0097 7.25995L17.9205 8.14751C18.1203 8.16803 18.2479 8.18052 18.346 8.19746C18.3964 8.20314 18.4458 8.21637 18.4923 8.23671L18.9017 7.44371ZM19.5324 8.14038C19.4133 7.83954 19.1892 7.59205 18.9017 7.44371L18.4923 8.23671C18.5882 8.28603 18.663 8.36842 18.7028 8.46864L19.5324 8.14038ZM19.626 9.04577C19.626 8.85756 19.626 8.69432 19.6171 8.55873C19.6111 8.41568 19.5825 8.27449 19.5324 8.14038L18.7028 8.46864C18.7099 8.48737 18.7206 8.52483 18.7269 8.6185C18.7338 8.76111 18.7362 8.9039 18.734 9.04667L19.626 9.04577ZM19.626 10.1733V9.04577H18.734V10.1733H19.626ZM19.5324 11.0778C19.5877 10.9386 19.6082 10.7995 19.6171 10.6594C19.626 10.5247 19.626 10.3615 19.626 10.1733H18.734C18.734 10.3731 18.734 10.5015 18.7269 10.6006C18.7264 10.6514 18.7183 10.702 18.7028 10.7504L19.5324 11.0778ZM18.9017 11.7754C19.1894 11.6268 19.4135 11.379 19.5324 11.0778L18.7028 10.7504C18.663 10.8506 18.5882 10.933 18.4923 10.9823L18.9017 11.7754ZM18.0097 11.9591C18.197 11.9404 18.3603 11.9234 18.4932 11.9011C18.6314 11.8788 18.7679 11.844 18.9008 11.7762L18.4923 10.9823C18.4458 11.0027 18.3964 11.016 18.346 11.0216C18.2479 11.0385 18.1203 11.051 17.9214 11.0715L18.0097 11.9591ZM16.9375 12.1331C16.9509 12.1223 17.0053 12.0893 17.1962 12.0554C17.3835 12.0215 17.6368 11.9957 18.0097 11.9591L17.9214 11.0715C17.5637 11.1072 17.2675 11.1358 17.0374 11.1777C16.8126 11.2178 16.5842 11.2803 16.396 11.423L16.9375 12.1331ZM16.7653 12.5469C16.7549 12.4689 16.7654 12.3895 16.7956 12.3168C16.8259 12.2441 16.8748 12.1807 16.9375 12.1331L16.396 11.423C16.2082 11.5663 16.0616 11.7567 15.9712 11.9749C15.8808 12.1932 15.8498 12.4315 15.8813 12.6656L16.7653 12.5469ZM17.4013 13.4283C17.2248 13.2195 17.0555 13.0047 16.8938 12.7842C16.7832 12.6254 16.768 12.563 16.7653 12.5469L15.8822 12.6665C15.9135 12.9002 16.0312 13.1054 16.1614 13.2936C16.2952 13.4845 16.4826 13.7146 16.7109 13.9929L17.4013 13.4283ZM17.9018 14.1883C17.8558 14.0525 17.7886 13.9249 17.7028 13.81C17.6063 13.6797 17.5058 13.5523 17.4013 13.4283L16.7109 13.9929C16.8376 14.1481 16.9188 14.2471 16.9758 14.3283C17.0076 14.368 17.0331 14.4122 17.0517 14.4594L17.9018 14.1883ZM17.8554 15.1276C17.984 14.8304 18.0005 14.4967 17.9018 14.1883L17.0517 14.4594C17.0847 14.5622 17.0793 14.6734 17.0365 14.7725L17.8554 15.1276ZM17.2818 15.8331C17.4147 15.7002 17.5298 15.5852 17.619 15.4835C17.7118 15.3773 17.7956 15.2658 17.8554 15.1276L17.0365 14.7725C17.0132 14.8178 16.9831 14.8593 16.9473 14.8956C16.8514 15.0009 16.7523 15.1032 16.6503 15.2025L17.2818 15.8331ZM16.4843 16.6306L17.2818 15.8331L16.6503 15.2025L15.8537 16L16.4843 16.6306ZM15.7779 17.2042C15.9152 17.1444 16.0276 17.0615 16.1338 16.9687C16.2355 16.8795 16.3505 16.7635 16.4843 16.6297L15.8537 16C15.7119 16.1418 15.6209 16.2319 15.5468 16.297C15.5102 16.3328 15.4684 16.3629 15.4228 16.3862L15.7779 17.2042ZM14.8386 17.2515C15.1471 17.3499 15.4808 17.3331 15.7779 17.2042L15.4228 16.3862C15.324 16.4287 15.2131 16.4341 15.1106 16.4014L14.8386 17.2515ZM14.0786 16.7501C14.2249 16.8697 14.3506 16.9731 14.4612 17.0516C14.5754 17.1328 14.6958 17.206 14.8386 17.2515L15.1106 16.4014C15.063 16.3829 15.0185 16.3574 14.9786 16.3255C14.8645 16.2403 14.7529 16.1516 14.6441 16.0597L14.0786 16.7501ZM13.1973 16.115C13.2133 16.1168 13.2758 16.1329 13.4345 16.2435C13.5906 16.3514 13.7887 16.5129 14.0786 16.7501L14.6441 16.0597C14.3649 15.8323 14.1357 15.644 13.9439 15.5102C13.7565 15.38 13.5496 15.2623 13.3159 15.231L13.1973 16.115ZM12.7834 16.2863C12.8311 16.2238 12.8946 16.175 12.9672 16.1449C13.0399 16.1149 13.1193 16.1045 13.1973 16.115L13.3159 15.231C13.082 15.1996 12.8439 15.2305 12.6259 15.3208C12.4078 15.411 12.2175 15.5573 12.0742 15.7448L12.7834 16.2863ZM12.6094 17.3594C12.6469 16.9856 12.6719 16.7323 12.7058 16.545C12.7405 16.3541 12.7727 16.2997 12.7834 16.2863L12.0742 15.7448C11.9315 15.9322 11.869 16.1623 11.828 16.3871C11.787 16.6163 11.7566 16.9116 11.721 17.2702L12.6094 17.3594ZM12.4257 18.2514C12.4943 18.1176 12.5282 17.9811 12.5514 17.8429C12.5746 17.7091 12.5907 17.5467 12.6094 17.3594L11.721 17.2702C11.7086 17.4125 11.6928 17.5544 11.6719 17.6957C11.6662 17.7461 11.653 17.7955 11.6327 17.842L12.4257 18.2514ZM11.729 18.8821C12.0298 18.763 12.2773 18.5389 12.4257 18.2514L11.6327 17.842C11.5833 17.9379 11.5009 18.0127 11.4007 18.0525L11.729 18.8821ZM10.8236 18.9757C11.0118 18.9757 11.175 18.9757 11.3106 18.9668C11.4498 18.9579 11.5898 18.9374 11.729 18.8821L11.4007 18.0525C11.3523 18.068 11.3017 18.0761 11.2509 18.0766C11.1527 18.0837 11.0234 18.0837 10.8227 18.0837L10.8236 18.9757ZM9.69608 18.9757H10.8236L10.8227 18.0837H9.69608V18.9757ZM8.79068 18.8821C8.93073 18.9374 9.06988 18.9579 9.20993 18.9668C9.34462 18.9757 9.50786 18.9757 9.69608 18.9757V18.0837C9.49627 18.0837 9.36782 18.0837 9.2688 18.0766C9.21792 18.0761 9.1674 18.068 9.11894 18.0525L8.79068 18.8821ZM8.09401 18.2514C8.24235 18.5389 8.48985 18.763 8.79068 18.8821L9.11894 18.0525C9.01873 18.0127 8.93633 17.9379 8.88702 17.842L8.09401 18.2514ZM7.91026 17.3594C7.92899 17.5467 7.94594 17.71 7.96735 17.8429C7.99054 17.9811 8.02533 18.1176 8.09401 18.2514L8.88702 17.842C8.86668 17.7955 8.85345 17.7461 8.84777 17.6957C8.82687 17.5547 8.81021 17.4131 8.79782 17.2711L7.91026 17.3594ZM7.73632 16.2863C7.74702 16.2997 7.77913 16.3541 7.81392 16.545C7.84782 16.7323 7.87279 16.9865 7.91026 17.3594L8.79782 17.2711C8.76214 16.9134 8.7327 16.6172 8.69167 16.3871C8.65153 16.1623 8.58909 15.9331 8.44547 15.7448L7.73632 16.2863ZM7.32242 16.115C7.40038 16.1045 7.47974 16.1149 7.55243 16.1449C7.62512 16.175 7.68856 16.2238 7.73632 16.2863L8.44547 15.7448C8.3023 15.5571 8.11202 15.4115 7.89394 15.3211C7.67587 15.2308 7.43776 15.1997 7.20378 15.231L7.32242 16.115ZM6.4411 16.751C6.73101 16.5129 6.92904 16.3514 7.08514 16.2435C7.24481 16.1329 7.30636 16.1168 7.32242 16.115L7.20378 15.231C6.97007 15.2623 6.76401 15.38 6.5758 15.5111C6.38401 15.644 6.15477 15.8323 5.87556 16.0606L6.4411 16.751ZM5.6811 17.2515C5.82383 17.206 5.94425 17.1337 6.05843 17.0525C6.16904 16.974 6.29481 16.8706 6.4411 16.751L5.87556 16.0606C5.76671 16.1522 5.65516 16.2406 5.54106 16.3255C5.50116 16.3574 5.45664 16.3829 5.40904 16.4014L5.6811 17.2515ZM4.74181 17.206C5.03898 17.3346 5.37271 17.3502 5.6811 17.2515L5.40904 16.4014C5.30655 16.4341 5.19566 16.4287 5.09683 16.3862L4.74181 17.206ZM4.03533 16.6306C4.16913 16.7644 4.2842 16.8804 4.38589 16.9696C4.49115 17.0615 4.60444 17.1462 4.74181 17.206L5.09683 16.3862C5.05121 16.3629 5.0094 16.3329 4.97284 16.297C4.86764 16.201 4.76531 16.102 4.66599 16L4.03533 16.6306ZM3.23876 15.834L4.03533 16.6306L4.66599 16L3.86941 15.2034L3.23876 15.834ZM2.6643 15.1276C2.72406 15.2649 2.80791 15.3773 2.90068 15.4835C2.98988 15.5852 3.10585 15.7002 3.23876 15.834L3.86941 15.2034C3.76709 15.1041 3.66773 15.0017 3.57148 14.8965C3.53564 14.86 3.50556 14.8181 3.48228 14.7725L2.6643 15.1276ZM2.61791 14.1883C2.51921 14.4967 2.53569 14.8304 2.6643 15.1276L3.48228 14.7725C3.43943 14.6738 3.43462 14.5629 3.46711 14.4603L2.61791 14.1883ZM3.11833 13.4283C2.9988 13.5746 2.89533 13.7003 2.81683 13.8109C2.73113 13.9255 2.664 14.0528 2.61791 14.1883L3.46711 14.4603C3.48584 14.4127 3.51171 14.3682 3.54383 14.3283C3.60092 14.248 3.68209 14.1481 3.80876 13.9938L3.11833 13.4283ZM3.75434 12.5469C3.75167 12.563 3.7365 12.6246 3.62589 12.7842C3.51707 12.9403 3.3565 13.1384 3.11833 13.4283L3.80876 13.9938C4.03711 13.7146 4.22533 13.4854 4.35824 13.2936C4.48937 13.1062 4.60711 12.8993 4.63833 12.6656L3.75434 12.5469ZM3.58308 12.1331C3.64559 12.1808 3.69436 12.2443 3.72444 12.3169C3.75452 12.3896 3.76483 12.469 3.75434 12.5469L4.63833 12.6656C4.66971 12.4316 4.63861 12.1935 4.54822 11.9754C4.45782 11.7573 4.31134 11.5671 4.12364 11.4239L3.58308 12.1331ZM2.50998 11.96C2.88373 11.9966 3.13707 12.0215 3.32439 12.0554C3.51528 12.0902 3.5697 12.1223 3.58308 12.1331L4.12364 11.423C3.93632 11.2803 3.70707 11.2178 3.48139 11.1777C3.25214 11.1367 2.95688 11.1063 2.59829 11.0707L2.50998 11.96ZM1.61796 11.7754C1.75176 11.844 1.88824 11.8779 2.0265 11.9011C2.16031 11.9243 2.32176 11.9413 2.50998 11.96L2.59918 11.0715C2.45688 11.0592 2.31498 11.0425 2.17369 11.0216C2.12323 11.0159 2.07392 11.0027 2.0274 10.9823L1.61796 11.7754ZM0.987301 11.0778C1.1062 11.379 1.33026 11.6268 1.61796 11.7754L2.0274 10.9823C1.93149 10.933 1.8567 10.8506 1.81688 10.7504L0.987301 11.0778ZM0.894531 10.1751C0.894531 10.3633 0.894531 10.5265 0.903451 10.6621C0.909224 10.8049 0.937834 10.9458 0.988193 11.0796L1.81777 10.7522C1.80226 10.7037 1.79414 10.6532 1.79369 10.6023C1.78706 10.4597 1.78468 10.3169 1.78655 10.1742L0.894531 10.1751ZM0.894531 9.04756V10.1751H1.78655V9.04756H0.894531ZM0.988193 8.14216C0.938029 8.27657 0.909429 8.41807 0.903451 8.56141C0.894531 8.6961 0.894531 8.85934 0.894531 9.04756H1.78655C1.78655 8.84775 1.78655 8.7193 1.79369 8.62028C1.79412 8.5694 1.80224 8.51888 1.81777 8.47042L0.988193 8.14216ZM1.61885 7.44549C1.33132 7.59383 1.10727 7.84133 0.988193 8.14216L1.81777 8.47042C1.8576 8.37021 1.93238 8.28781 2.02829 8.2385L1.61885 7.44549ZM2.51087 7.26085C2.32355 7.27958 2.16031 7.29742 2.0274 7.31883C1.88539 7.33924 1.7475 7.38199 1.61885 7.44549L2.02829 8.2385C2.04613 8.22958 2.08181 8.21441 2.17458 8.19925C2.2727 8.1823 2.40026 8.16981 2.59918 8.1493L2.51087 7.26085ZM3.58397 7.08779C3.57059 7.0985 3.51617 7.13061 3.32528 7.1654C3.13796 7.1993 2.88463 7.22338 2.51087 7.26085L2.59918 8.1493C2.95688 8.11362 3.25392 8.08418 3.48317 8.04315C3.70885 8.003 3.9381 7.94056 4.12542 7.79695L3.58397 7.08779ZM3.75524 6.6739C3.76573 6.75186 3.75541 6.83121 3.72533 6.9039C3.69525 6.97659 3.64648 7.04004 3.58397 7.08779L4.12542 7.79695C4.31296 7.65368 4.45927 7.46335 4.54951 7.24528C4.63974 7.02721 4.6707 6.78826 4.63923 6.55437L3.75524 6.6739ZM3.11923 5.79169C3.35739 6.08249 3.51885 6.28052 3.62768 6.43662C3.73829 6.59629 3.75256 6.65784 3.75524 6.6739L4.63923 6.55437C4.60801 6.32066 4.49026 6.11549 4.35913 5.92728C4.22622 5.73549 4.03801 5.50624 3.80965 5.22704L3.11923 5.79169ZM2.6188 5.03169C2.6634 5.17441 2.73655 5.29573 2.81772 5.40991C2.89622 5.51962 2.9997 5.64629 3.11923 5.79169L3.80965 5.22704C3.71803 5.11789 3.62968 5.00605 3.54472 4.89164C3.51268 4.85205 3.48682 4.80784 3.46801 4.76052L2.6188 5.03169ZM2.66519 4.09329C2.5368 4.3902 2.52032 4.72357 2.6188 5.03169L3.46801 4.76052C3.43552 4.65792 3.44122 4.54703 3.48406 4.44831L2.66519 4.09329ZM3.23965 3.38681C3.10585 3.51972 2.98988 3.63479 2.90068 3.73737C2.80395 3.84288 2.72447 3.963 2.66519 4.09329L3.48406 4.44831C3.50741 4.40301 3.53749 4.36061 3.57326 4.32432C3.66882 4.21875 3.76789 4.11641 3.87031 4.01746L3.23965 3.38681ZM4.03622 2.58934L3.23965 3.38681L3.87031 4.01746L4.66688 3.22L4.03622 2.58934ZM4.7427 2.01577C4.61245 2.07512 4.49234 2.15459 4.38678 2.25127C4.28509 2.34047 4.16913 2.45554 4.03622 2.58934L4.66688 3.22C4.80871 3.07906 4.8997 2.98807 4.97373 2.92296C5.04509 2.86052 5.07899 2.84268 5.09772 2.83376L4.7427 2.01577ZM5.682 1.9685C5.37349 1.87008 5.03976 1.88687 4.7427 2.01577L5.09772 2.83376C5.19645 2.79091 5.30733 2.7861 5.40993 2.81859L5.682 1.9685ZM6.442 2.46981C6.2957 2.35028 6.16993 2.24681 6.05932 2.16831C5.94485 2.08226 5.8175 2.01482 5.682 1.9685L5.40993 2.81859C5.45752 2.83705 5.50203 2.86261 5.54195 2.89441C5.62223 2.95239 5.72214 3.03357 5.87735 3.16023L6.442 2.46981ZM7.32331 3.10582C7.30725 3.10315 7.2457 3.08798 7.08603 2.97737C6.86557 2.81534 6.65076 2.64665 6.442 2.46981L5.87735 3.16023C6.15566 3.38859 6.3858 3.57681 6.57669 3.70972C6.76401 3.83995 6.97096 3.9577 7.20467 3.98981L7.32331 3.10582ZM7.73721 2.93366C7.68955 2.99634 7.62616 3.04528 7.55346 3.07552C7.48076 3.10576 7.40136 3.11621 7.32331 3.10582L7.20467 3.98981C7.43871 4.02145 7.67695 3.98968 7.89519 3.89944C8.11343 3.8092 8.30391 3.6628 8.44725 3.47512L7.73721 2.93366ZM7.91115 1.86146C7.87369 2.23432 7.84871 2.48854 7.81481 2.67498C7.78002 2.86587 7.74791 2.92028 7.73721 2.93366L8.44725 3.47512C8.58998 3.28779 8.65242 3.05854 8.69256 2.83286C8.73359 2.60361 8.76392 2.30836 8.7996 1.94976L7.91115 1.86146ZM8.09491 0.969436C8.02622 1.10324 7.99143 1.23972 7.96824 1.37798C7.94594 1.51178 7.92988 1.67324 7.91115 1.86146L8.79871 1.95066C8.81108 1.80836 8.82774 1.66646 8.84866 1.52516C8.85429 1.4747 8.86752 1.42538 8.88791 1.37887L8.09491 0.969436ZM8.79247 0.338779C8.49115 0.457895 8.24329 0.681406 8.09491 0.969436L8.88791 1.37887C8.93723 1.28297 9.01962 1.20818 9.11984 1.16836L8.79247 0.338779ZM9.69697 0.245117C9.50876 0.245117 9.34552 0.245117 9.20993 0.254037C9.06714 0.25981 8.9262 0.28842 8.79247 0.338779L9.11984 1.16836C9.16829 1.15282 9.21881 1.1447 9.2697 1.14427C9.36782 1.13714 9.49716 1.13714 9.69786 1.13714L9.69697 0.245117ZM10.8245 0.245117H9.69697V1.13714H10.8245V0.245117ZM11.7299 0.338779C11.5955 0.2886 11.454 0.26 11.3106 0.254037C11.1759 0.245117 11.0127 0.245117 10.8245 0.245117V1.13714C11.0243 1.13714 11.1527 1.13714 11.2518 1.14427C11.3026 1.14499 11.3531 1.1531 11.4016 1.16836L11.7299 0.338779ZM12.4265 0.969436C12.278 0.681742 12.0302 0.457674 11.729 0.338779L11.4016 1.16836C11.5018 1.20818 11.5842 1.28297 11.6335 1.37887L12.4265 0.969436ZM13.3828 9.61042C13.3828 10.4384 13.0539 11.2326 12.4684 11.8181C11.8829 12.4036 11.0888 12.7325 10.2607 12.7325V13.6245C11.3253 13.6245 12.3463 13.2016 13.0991 12.4488C13.8519 11.696 14.2748 10.675 14.2748 9.61042H13.3828ZM10.2607 6.48836C11.0888 6.48836 11.8829 6.81729 12.4684 7.40279C13.0539 7.98829 13.3828 8.7824 13.3828 9.61042H14.2748C14.2748 8.54582 13.8519 7.52482 13.0991 6.77204C12.3463 6.01925 11.3253 5.59634 10.2607 5.59634V6.48836ZM7.13866 9.61042C7.13866 8.7824 7.46759 7.98829 8.05309 7.40279C8.6386 6.81729 9.4327 6.48836 10.2607 6.48836V5.59634C9.19613 5.59634 8.17513 6.01925 7.42234 6.77204C6.66956 7.52482 6.24664 8.54582 6.24664 9.61042H7.13866ZM10.2607 12.7325C9.4327 12.7325 8.6386 12.4036 8.05309 11.8181C7.46759 11.2326 7.13866 10.4384 7.13866 9.61042H6.24664C6.24664 10.675 6.66956 11.696 7.42234 12.4488C8.17513 13.2016 9.19613 13.6245 10.2607 13.6245V12.7325Z" fill="#5C5C66"/>
</svg>
