<svg width="14" height="21" viewBox="0 0 14 21" fill="none" xmlns="http://www.w3.org/2000/svg">
<path d="M7.5 7.65918L8.94 9.81918C9.25 10.2892 9.95 10.6592 10.51 10.6592H13.5V8.65918H10.5L9.06 6.49918C8.67494 5.95748 8.2017 5.48424 7.66 5.09918L6.34 4.21918C6.0844 4.06576 5.79331 3.98141 5.49529 3.9744C5.19726 3.96739 4.90253 4.03795 4.64 4.17918L0.5 6.65918V11.6592H2.5V7.65918L4.5 6.65918L1.5 20.6592H3.5L5.85 13.0092L7.5 14.6592V20.6592H9.5V12.6592L6.8 9.95918L7.5 7.65918ZM8.5 4.65918C9.03043 4.65918 9.53914 4.44847 9.91421 4.07339C10.2893 3.69832 10.5 3.18961 10.5 2.65918C10.5 2.12875 10.2893 1.62004 9.91421 1.24497C9.53914 0.869893 9.03043 0.65918 8.5 0.65918C7.96957 0.65918 7.46086 0.869893 7.08579 1.24497C6.71071 1.62004 6.5 2.12875 6.5 2.65918C6.5 3.18961 6.71071 3.69832 7.08579 4.07339C7.46086 4.44847 7.96957 4.65918 8.5 4.65918Z" fill="#5C5C66"/>
</svg>
