<svg width="15" height="14" viewBox="0 0 15 14" fill="none" xmlns="http://www.w3.org/2000/svg">
<path d="M8.03418 5.41765C8.03418 5.03388 7.72308 4.72278 7.33932 4.72278C6.95555 4.72278 6.64445 5.03388 6.64445 5.41765V6.03531C6.64445 6.41907 6.95555 6.73018 7.33932 6.73018C7.72308 6.73018 8.03418 6.41907 8.03418 6.03531V5.41765Z" fill="#5C5C66"/>
<path fill-rule="evenodd" clip-rule="evenodd" d="M7.98786 0.746582C9.15411 0.746582 10.1373 1.53016 10.4398 2.59957H12.049C13.2856 2.59957 14.288 3.60201 14.288 4.83859V5.75736C14.288 6.25222 14.0157 6.6835 13.6128 6.90956L13.2235 10.7547C13.0798 12.1741 11.8848 13.2542 10.4582 13.2542H4.22046C2.79381 13.2542 1.59883 12.1741 1.45512 10.7547L1.06579 6.90956C0.662889 6.6835 0.390625 6.25222 0.390625 5.75736V4.83859C0.390625 3.60201 1.39307 2.59957 2.62965 2.59957H4.23882C4.54129 1.53016 5.52452 0.746582 6.69077 0.746582H7.98786ZM5.76419 2.59957C5.97548 2.31827 6.31188 2.13632 6.69077 2.13632H7.98786C8.36675 2.13632 8.70315 2.31827 8.91444 2.59957H5.76419ZM1.78036 4.83859C1.78036 4.36954 2.1606 3.9893 2.62965 3.9893H12.049C12.518 3.9893 12.8983 4.36954 12.8983 4.83859V5.6913C12.8329 5.6978 12.7702 5.71335 12.7114 5.7367L8.07374 7.45434C7.91924 7.51156 7.75581 7.54086 7.59106 7.54086H7.08757C6.92282 7.54086 6.75939 7.51156 6.60489 7.45434L1.96726 5.7367C1.90848 5.71335 1.84575 5.6978 1.78036 5.6913V4.83859ZM8.55641 8.75757L12.1642 7.42136L11.8408 10.6147C11.769 11.3244 11.1715 11.8645 10.4582 11.8645H4.22046C3.50714 11.8645 2.90964 11.3244 2.83779 10.6147L2.51446 7.42136L6.12222 8.75757C6.4312 8.87201 6.75807 8.9306 7.08757 8.9306H7.59106C7.92056 8.9306 8.24743 8.87201 8.55641 8.75757Z" fill="#5C5C66"/>
</svg>
