<svg width="24" height="25" viewBox="0 0 24 25" fill="none" xmlns="http://www.w3.org/2000/svg">
<path fill-rule="evenodd" clip-rule="evenodd" d="M10.0005 2.47266C9.73734 2.47266 9.49673 2.62136 9.37902 2.85677L8.57108 4.47266H6.0022C5.10492 4.47266 4.30831 5.04682 4.02457 5.89805L2.69686 9.88116L2.49188 9.67618C2.22052 9.40482 1.78055 9.40482 1.50919 9.67618C1.23782 9.94754 1.23782 10.3875 1.50919 10.6589L1.81076 10.9605C1.49895 11.2678 1.30566 11.6951 1.30566 12.1675V15.7778C1.30566 16.7261 1.93893 17.5266 2.80566 17.7793V19.4727C2.80566 20.2402 3.42787 20.8624 4.1954 20.8624H7.30567C8.0732 20.8624 8.6954 20.2402 8.6954 19.4727V17.8624H15.3057V19.4727C15.3057 20.2402 15.9279 20.8624 16.6954 20.8624H19.8057C20.5732 20.8624 21.1954 20.2402 21.1954 19.4727V17.7793C22.0621 17.5266 22.6954 16.7261 22.6954 15.7778V12.1675C22.6954 11.6951 22.5021 11.2678 22.1903 10.9605L22.4919 10.6589C22.7632 10.3875 22.7632 9.94754 22.4919 9.67618C22.2205 9.40482 21.7806 9.40482 21.5092 9.67618L21.3042 9.88117L19.9765 5.89805C19.6928 5.04682 18.8961 4.47266 17.9989 4.47266H15.43L14.622 2.85677C14.5043 2.62136 14.2637 2.47266 14.0005 2.47266H10.0005ZM13.5711 3.86239L13.8762 4.47266H10.1249L10.43 3.86239H13.5711ZM5.34299 6.33753L3.96461 10.4727H20.0365L18.6581 6.33753C18.5635 6.05378 18.298 5.86239 17.9989 5.86239H15.0005H9.00053H6.0022C5.70311 5.86239 5.43757 6.05378 5.34299 6.33753ZM2.6954 12.1675C2.6954 11.999 2.83201 11.8624 3.00053 11.8624H21.0005C21.1691 11.8624 21.3057 11.999 21.3057 12.1675V15.7778C21.3057 16.1616 20.9946 16.4727 20.6108 16.4727H20.5005H16.0005H8.00053H3.50053H3.39027C3.00651 16.4727 2.6954 16.1616 2.6954 15.7778V12.1675ZM4.1954 19.4727V17.8624H7.30566V19.4727H4.1954ZM16.6954 19.4727V17.8624H19.8057V19.4727H16.6954Z" fill="#45454D"/>
</svg>
