<svg width="17" height="17" viewBox="0 0 17 17" fill="none" xmlns="http://www.w3.org/2000/svg">
<g clip-path="url(#clip0_4083_18407)">
<path fill-rule="evenodd" clip-rule="evenodd" d="M8.50016 3.63477C6.9651 3.63477 5.72068 4.87918 5.72068 6.41424C5.72068 7.9493 6.9651 9.19372 8.50016 9.19372C10.0352 9.19372 11.2796 7.9493 11.2796 6.41424C11.2796 4.87918 10.0352 3.63477 8.50016 3.63477ZM7.11042 6.41424C7.11042 5.64671 7.73263 5.0245 8.50016 5.0245C9.26769 5.0245 9.8899 5.64671 9.8899 6.41424C9.8899 7.18177 9.26769 7.80398 8.50016 7.80398C7.73263 7.80398 7.11042 7.18177 7.11042 6.41424Z" fill="#737380"/>
<path fill-rule="evenodd" clip-rule="evenodd" d="M8.50016 15.4475C7.71017 15.4475 6.57111 15.2608 5.70668 14.8636C5.28264 14.6687 4.82765 14.3797 4.55927 13.9473C4.4176 13.719 4.32809 13.4499 4.33101 13.1504C4.33391 12.8537 4.42694 12.5724 4.57928 12.3146C5.27587 11.1357 6.72098 9.88859 8.50016 9.88859C10.2793 9.88859 11.7244 11.1357 12.421 12.3146C12.5734 12.5724 12.6664 12.8537 12.6693 13.1504C12.6722 13.4499 12.5827 13.719 12.441 13.9473C12.1727 14.3797 11.7177 14.6687 11.2936 14.8636C10.4292 15.2608 9.29014 15.4475 8.50016 15.4475ZM5.77576 13.0216C5.72254 13.1116 5.72076 13.1563 5.72069 13.1639C5.72062 13.169 5.72045 13.1828 5.74008 13.2144C5.79525 13.3033 5.95548 13.4485 6.28699 13.6008C6.93365 13.898 7.86702 14.0578 8.50016 14.0578C9.1333 14.0578 10.0667 13.898 10.7133 13.6008C11.0448 13.4485 11.2051 13.3033 11.2602 13.2144C11.2799 13.1828 11.2797 13.1693 11.2796 13.1643C11.2796 13.1567 11.2778 13.1116 11.2246 13.0216C10.6845 12.1076 9.62828 11.2783 8.50016 11.2783C7.37203 11.2783 6.31581 12.1076 5.77576 13.0216Z" fill="#737380"/>
<path fill-rule="evenodd" clip-rule="evenodd" d="M1.8989 8.49885C1.8989 7.34755 2.83221 6.41424 3.98351 6.41424C5.13481 6.41424 6.06812 7.34755 6.06812 8.49885C6.06812 9.65015 5.13481 10.5835 3.98351 10.5835C2.83221 10.5835 1.8989 9.65015 1.8989 8.49885ZM3.98351 7.80398C3.59974 7.80398 3.28864 8.11508 3.28864 8.49885C3.28864 8.88262 3.59974 9.19372 3.98351 9.19372C4.36728 9.19372 4.67838 8.88262 4.67838 8.49885C4.67838 8.11508 4.36728 7.80398 3.98351 7.80398Z" fill="#737380"/>
<path d="M2.17389 13.6719C2.00327 14.0156 1.58629 14.156 1.24253 13.9854C0.898783 13.8147 0.758432 13.3978 0.929051 13.054C1.18434 12.5397 1.57073 12.0233 2.05681 11.6281C2.54307 11.2329 3.16618 10.9309 3.87731 10.9309C4.26108 10.9309 4.57218 11.242 4.57218 11.6258C4.57218 12.0095 4.26108 12.3206 3.87731 12.3206C3.57089 12.3206 3.24749 12.4512 2.93342 12.7065C2.61917 12.962 2.35143 13.3142 2.17389 13.6719Z" fill="#737380"/>
<path fill-rule="evenodd" clip-rule="evenodd" d="M11.1477 8.49885C11.1477 7.34755 12.081 6.41424 13.2323 6.41424C14.3836 6.41424 15.3169 7.34755 15.3169 8.49885C15.3169 9.65015 14.3836 10.5835 13.2323 10.5835C12.081 10.5835 11.1477 9.65015 11.1477 8.49885ZM13.2323 7.80398C12.8485 7.80398 12.5374 8.11508 12.5374 8.49885C12.5374 8.88262 12.8485 9.19372 13.2323 9.19372C13.616 9.19372 13.9271 8.88262 13.9271 8.49885C13.9271 8.11508 13.616 7.80398 13.2323 7.80398Z" fill="#737380"/>
<path d="M16.0743 13.054C16.2449 13.3978 16.1046 13.8147 15.7608 13.9854C15.4171 14.156 15.0001 14.0156 14.8295 13.6719C14.652 13.3142 14.3842 12.962 14.07 12.7065C13.7559 12.4512 13.4325 12.3206 13.1261 12.3206C12.7423 12.3206 12.4312 12.0095 12.4312 11.6258C12.4312 11.242 12.7423 10.9309 13.1261 10.9309C13.8372 10.9309 14.4603 11.2329 14.9466 11.6281C15.4326 12.0233 15.819 12.5397 16.0743 13.054Z" fill="#737380"/>
</g>
<defs>
<clipPath id="clip0_4083_18407">
<rect width="16.6769" height="16.6769" fill="white" transform="translate(0.162109 0.160156)"/>
</clipPath>
</defs>
</svg>
