<svg width="12" height="12" viewBox="0 0 12 12" fill="none" xmlns="http://www.w3.org/2000/svg">
<path fill-rule="evenodd" clip-rule="evenodd" d="M6.8533 0.603064C6.26573 0.0346559 5.33326 0.0346559 4.74569 0.603064C4.4097 0.928104 3.94251 1.0799 3.47963 1.01443C2.67018 0.899941 1.91579 1.44804 1.77455 2.25325C1.69378 2.7137 1.40504 3.11112 0.992077 3.33023C0.269923 3.71338 -0.0182289 4.60022 0.340793 5.33467C0.546097 5.75467 0.546097 6.2459 0.340793 6.66589C-0.0182289 7.40034 0.269923 8.28718 0.992077 8.67034C1.40504 8.88944 1.69378 9.28686 1.77455 9.74732C1.91579 10.5525 2.67018 11.1006 3.47963 10.9861C3.94251 10.9207 4.4097 11.0725 4.74569 11.3975C5.33326 11.9659 6.26573 11.9659 6.8533 11.3975C7.18929 11.0725 7.65648 10.9207 8.11936 10.9861C8.92881 11.1006 9.6832 10.5525 9.82444 9.74732C9.90521 9.28686 10.194 8.88944 10.6069 8.67034C11.3291 8.28718 11.6172 7.40034 11.2582 6.66589C11.0529 6.2459 11.0529 5.75467 11.2582 5.33467C11.6172 4.60022 11.3291 3.71338 10.6069 3.33023C10.194 3.11112 9.90521 2.7137 9.82444 2.25325C9.6832 1.44804 8.92881 0.899941 8.11936 1.01443C7.65648 1.0799 7.18929 0.928104 6.8533 0.603064ZM8.55143 4.65655C8.7758 4.42537 8.77028 4.05606 8.5391 3.83169C8.30791 3.60731 7.93861 3.61283 7.71423 3.84401L4.7359 6.91271L3.88476 6.03574C3.66038 5.80456 3.29108 5.79904 3.05989 6.02342C2.82871 6.24779 2.82319 6.6171 3.04756 6.84828L4.3173 8.15655C4.42716 8.26974 4.57817 8.33362 4.7359 8.33362C4.89363 8.33362 5.04464 8.26974 5.1545 8.15655L8.55143 4.65655Z" fill="#006400"/>
</svg>
