<svg width="24" height="25" viewBox="0 0 24 25" fill="none" xmlns="http://www.w3.org/2000/svg">
<path d="M4.59292 9.79876C5.074 9.95912 5.4515 10.3366 5.61186 10.8177C5.77507 11.3073 6.46761 11.3073 6.63081 10.8177C6.79117 10.3366 7.16868 9.95912 7.64976 9.79876C8.13937 9.63556 8.13937 8.94302 7.64976 8.77982C7.16868 8.61946 6.79117 8.24195 6.63081 7.76087C6.46761 7.27126 5.77507 7.27126 5.61187 7.76087C5.4515 8.24195 5.074 8.61946 4.59292 8.77982C4.10331 8.94302 4.10331 9.63556 4.59292 9.79876Z" fill="#45454D"/>
<path fill-rule="evenodd" clip-rule="evenodd" d="M5 4.16797C2.79086 4.16797 1 5.95883 1 8.16797V16.168C1 18.3771 2.79086 20.168 5 20.168H15C16.8925 20.168 18.478 18.8538 18.8936 17.0882L19.8 17.768C21.1185 18.7568 23 17.8161 23 16.168V8.16797C23 6.51988 21.1185 5.57911 19.8 6.56797L18.8936 7.24774C18.478 5.48218 16.8925 4.16797 15 4.16797H5ZM21 16.168L19 14.668V9.66797L21 8.16797V16.168ZM3 8.16797C3 7.0634 3.89543 6.16797 5 6.16797H15C16.1046 6.16797 17 7.0634 17 8.16797V16.168C17 17.2725 16.1046 18.168 15 18.168H5C3.89543 18.168 3 17.2725 3 16.168V8.16797Z" fill="#45454D"/>
</svg>
